<?xml version="1.0" standalone="no"?>
<!DOCTYPE svg PUBLIC "-//W3C//DTD SVG 20010904//EN"
 "http://www.w3.org/TR/2001/REC-SVG-20010904/DTD/svg10.dtd">
<svg version="1.0" xmlns="http://www.w3.org/2000/svg"
 width="1024.000000pt" height="405.000000pt" viewBox="0 0 1024.000000 405.000000"
 preserveAspectRatio="xMidYMid meet">

<g transform="translate(0.000000,405.000000) scale(0.100000,-0.100000)"
fill="#000000" stroke="none">
<path d="M3904 3303 c-49 -43 -121 -110 -160 -148 -38 -39 -79 -77 -91 -85
-13 -8 -22 -19 -21 -25 4 -29 -90 -174 -109 -168 -7 3 -13 -2 -13 -11 0 -9 -4
-16 -10 -16 -5 0 -10 -6 -10 -14 0 -8 -3 -16 -8 -18 -7 -3 -66 -121 -82 -163
-18 -50 -49 -124 -61 -147 -5 -10 -9 -29 -9 -42 0 -14 -4 -28 -10 -31 -5 -3
-10 -19 -10 -35 0 -16 -4 -31 -9 -34 -9 -6 -12 -20 -33 -171 -21 -155 -14
-536 13 -640 6 -22 15 -58 21 -80 5 -22 14 -48 19 -57 5 -10 9 -27 9 -37 0
-11 4 -30 9 -43 5 -13 14 -41 21 -63 39 -122 158 -347 237 -447 163 -206 251
-300 337 -358 20 -14 58 -42 84 -63 26 -20 83 -56 127 -79 44 -22 91 -49 105
-58 54 -36 238 -107 415 -159 142 -41 669 -51 825 -14 36 8 94 24 130 35 36
10 83 24 105 31 22 6 65 23 95 37 30 15 71 32 90 40 19 7 54 26 78 42 24 15
45 28 47 28 11 0 147 87 210 135 65 49 260 244 347 348 60 70 82 106 177 282
44 81 103 225 124 300 10 39 23 86 29 105 15 52 28 137 33 210 l4 65 -10 -55
c-41 -229 -85 -375 -160 -538 -42 -92 -117 -222 -134 -234 -16 -12 -27 -9 -19
5 6 9 4 9 -7 0 -28 -27 -28 -11 2 40 55 94 146 290 178 386 42 126 69 264 82
419 16 196 24 181 -107 208 -62 12 -143 32 -180 43 -80 24 -71 -5 -79 251 -9
337 -22 363 -24 50 -1 -381 -25 -582 -96 -830 -161 -561 -550 -963 -1199
-1240 l-110 -47 -85 35 c-713 286 -1134 757 -1266 1416 -39 195 -46 290 -52
672 -6 389 0 554 22 554 11 0 272 93 490 175 50 19 254 93 455 166 201 72 371
135 379 139 18 10 -107 5 -131 -5 -10 -4 -18 -12 -18 -17 0 -6 -9 -8 -20 -5
-20 5 -77 -6 -115 -23 -58 -25 -240 -43 -264 -25 -11 7 -13 7 -8 -2 5 -8 -6
-11 -36 -10 -23 0 -49 -3 -57 -8 -9 -5 -15 -4 -18 3 -3 9 -9 9 -23 1 -24 -13
-40 -4 -33 19 5 16 5 16 -9 0 -16 -20 -48 -24 -44 -7 1 6 -4 14 -12 17 -9 3
-12 0 -9 -10 7 -17 -47 -24 -57 -8 -3 5 -11 10 -16 10 -6 0 -8 -4 -5 -9 4 -5
-2 -8 -11 -6 -10 2 -20 4 -23 4 -3 1 0 5 6 9 7 5 5 14 -9 27 -11 11 -17 15
-13 8 13 -23 -17 -25 -60 -3 -35 18 -42 26 -33 37 9 10 7 13 -7 13 -11 0 -60
-35 -110 -77z"/>
<path d="M5050 3135 c-89 -34 -642 -231 -884 -315 l-269 -94 6 -385 c6 -402
15 -508 58 -692 57 -246 184 -494 349 -684 145 -167 360 -322 617 -447 l161
-78 84 36 c211 90 422 220 575 354 237 208 414 511 483 829 42 190 50 306 50
694 l0 372 -293 104 c-160 57 -427 152 -593 212 -165 60 -303 109 -305 108 -2
0 -20 -6 -39 -14z m329 -455 c171 -24 338 -181 367 -342 l6 -37 -55 6 c-35 4
-82 -1 -132 -12 -42 -9 -77 -15 -78 -13 -39 77 -90 116 -164 124 -51 7 -51 7
-62 50 -13 52 -71 121 -118 141 -77 32 -189 3 -238 -61 -13 -17 -29 -52 -35
-78 l-12 -48 -102 0 -101 0 -135 135 -134 135 229 3 c553 6 704 6 764 -3z
m-249 -132 c56 -29 82 -73 83 -138 1 -57 -19 -92 -71 -125 l-32 -20 3 -150 2
-150 41 -3 42 -3 -14 -46 c-8 -25 -14 -83 -14 -129 l0 -83 -27 -3 c-28 -3 -28
-4 -34 -88 -14 -184 -102 -318 -259 -394 -62 -29 -71 -31 -185 -31 -108 0
-125 3 -175 26 -120 56 -215 183 -240 318 -11 59 -14 343 -4 403 l6 36 36 -46
c20 -26 57 -74 82 -107 26 -33 57 -75 70 -94 21 -30 21 -33 4 -28 -10 3 -38 9
-61 12 l-43 7 0 -69 c0 -140 49 -247 144 -310 60 -41 103 -53 188 -53 98 0
169 30 239 99 68 69 97 137 101 242 l3 74 -125 0 -125 0 -3 -137 -3 -138 -129
0 -130 0 0 430 0 430 130 0 130 0 0 -160 0 -160 130 0 130 0 0 149 0 149 -35
26 c-51 39 -68 79 -63 143 4 44 11 60 37 87 30 31 74 52 111 55 9 1 36 -9 60
-21z m692 -319 c125 -42 211 -119 267 -240 117 -251 -5 -530 -270 -619 -53
-18 -81 -21 -160 -18 -87 3 -104 7 -169 40 l-73 36 -23 -27 c-17 -19 -23 -37
-21 -67 1 -39 -5 -48 -181 -247 -114 -129 -192 -209 -208 -213 -63 -16 -124
34 -124 102 0 41 6 50 88 141 48 54 130 147 181 206 91 105 95 109 129 105 30
-4 40 1 63 26 l27 30 -30 44 c-111 161 -118 357 -18 510 63 97 150 165 255
198 65 21 196 17 267 -7z m-1692 -144 c0 -33 -2 -35 -35 -35 -33 0 -35 2 -35
35 0 33 2 35 35 35 33 0 35 -2 35 -35z m170 0 c0 -33 -2 -35 -35 -35 -33 0
-35 2 -35 35 0 33 2 35 35 35 33 0 35 -2 35 -35z m-82 -77 c-3 -30 -6 -33 -40
-36 -37 -3 -38 -3 -38 32 0 35 1 36 41 36 39 0 40 -1 37 -32z"/>
<path d="M5019 2460 c-25 -25 -30 -36 -24 -58 9 -36 24 -50 62 -58 26 -5 37
-1 57 19 32 32 33 58 4 91 -37 40 -64 42 -99 6z"/>
<path d="M5595 2137 c-105 -28 -179 -88 -227 -185 -30 -61 -33 -74 -33 -162 0
-85 3 -101 28 -148 138 -262 510 -258 636 8 22 47 26 68 26 150 -1 115 -22
167 -100 246 -82 83 -217 120 -330 91z m144 -56 c11 -7 12 -17 2 -56 -36 -142
-148 -264 -286 -311 -60 -21 -65 -14 -65 82 0 129 74 234 194 276 55 19 132
23 155 9z"/>
<path d="M6900 2425 c0 -5 5 -17 10 -25 5 -8 10 -10 10 -5 0 6 -5 17 -10 25
-5 8 -10 11 -10 5z"/>
<path d="M6921 2350 c0 -8 4 -24 9 -35 l9 -20 0 20 c0 11 -4 27 -9 35 -9 13
-10 13 -9 0z"/>
<path d="M6942 2235 c0 -11 4 -31 8 -45 l8 -25 0 25 c0 14 -3 34 -8 45 l-9 20
1 -20z"/>
<path d="M6962 1935 c0 -120 3 -167 9 -140 10 51 10 216 0 275 -6 30 -9 -14
-9 -135z"/>
</g>
</svg>
